<svg width="36" height="36" viewBox="0 0 36 36" fill="none" xmlns="http://www.w3.org/2000/svg">
<path fill-rule="evenodd" clip-rule="evenodd" d="M17.9831 10.9386L9.94007 17.4111C9.29507 17.9301 8.35157 17.8281 7.83107 17.1831C7.31207 16.5366 7.41407 15.5931 8.05907 15.0726L17.0591 7.83063C17.6156 7.38363 18.4106 7.38813 18.9596 7.84863L27.9596 15.3486C28.5971 15.8781 28.6826 16.8231 28.1516 17.4606C27.8546 17.8161 27.4286 18.0006 26.9996 18.0006C26.6606 18.0006 26.3201 17.8851 26.0396 17.6526L17.9831 10.9386ZM17.0594 18.3314C17.6159 17.8829 18.4109 17.8889 18.9599 18.3479L27.9599 25.8479C28.5959 26.3789 28.6814 27.3239 28.1519 27.9599C27.8549 28.3169 27.4289 28.4999 26.9984 28.4999C26.6609 28.4999 26.3204 28.3859 26.0399 28.1519L17.9834 21.4394L9.94038 27.9104C9.29538 28.4309 8.35188 28.3289 7.83138 27.6824C7.31088 27.0374 7.41438 26.0939 8.05938 25.5734L17.0594 18.3314Z" fill="#A6ADB1"/>
<mask id="mask0_30_925" style="mask-type:alpha" maskUnits="userSpaceOnUse" x="7" y="7" width="22" height="22">
<path fill-rule="evenodd" clip-rule="evenodd" d="M17.9831 10.9386L9.94007 17.4111C9.29507 17.9301 8.35157 17.8281 7.83107 17.1831C7.31207 16.5366 7.41407 15.5931 8.05907 15.0726L17.0591 7.83063C17.6156 7.38363 18.4106 7.38813 18.9596 7.84863L27.9596 15.3486C28.5971 15.8781 28.6826 16.8231 28.1516 17.4606C27.8546 17.8161 27.4286 18.0006 26.9996 18.0006C26.6606 18.0006 26.3201 17.8851 26.0396 17.6526L17.9831 10.9386ZM17.0594 18.3314C17.6159 17.8829 18.4109 17.8889 18.9599 18.3479L27.9599 25.8479C28.5959 26.3789 28.6814 27.3239 28.1519 27.9599C27.8549 28.3169 27.4289 28.4999 26.9984 28.4999C26.6609 28.4999 26.3204 28.3859 26.0399 28.1519L17.9834 21.4394L9.94038 27.9104C9.29538 28.4309 8.35188 28.3289 7.83138 27.6824C7.31088 27.0374 7.41438 26.0939 8.05938 25.5734L17.0594 18.3314Z" fill="white"/>
</mask>
<g mask="url(#mask0_30_925)">
<rect width="36" height="36" fill="#A6ADB1"/>
</g>
</svg>
