<svg width="24" height="24" viewBox="0 0 24 24" fill="none" xmlns="http://www.w3.org/2000/svg">
<path fill-rule="evenodd" clip-rule="evenodd" d="M11.9999 16C11.7719 16 11.5449 15.923 11.3599 15.768L5.35991 10.768C4.93591 10.415 4.87791 9.784 5.23191 9.36C5.58491 8.936 6.21491 8.879 6.63991 9.232L12.0109 13.708L17.3729 9.393C17.8029 9.047 18.4329 9.115 18.7789 9.545C19.1249 9.975 19.0569 10.604 18.6269 10.951L12.6269 15.779C12.4439 15.926 12.2219 16 11.9999 16Z" fill="#272B31"/>
<mask id="mask0_52_2512" style="mask-type:alpha" maskUnits="userSpaceOnUse" x="5" y="9" width="14" height="7">
<path fill-rule="evenodd" clip-rule="evenodd" d="M11.9999 16C11.7719 16 11.5449 15.923 11.3599 15.768L5.35991 10.768C4.93591 10.415 4.87791 9.784 5.23191 9.36C5.58491 8.936 6.21491 8.879 6.63991 9.232L12.0109 13.708L17.3729 9.393C17.8029 9.047 18.4329 9.115 18.7789 9.545C19.1249 9.975 19.0569 10.604 18.6269 10.951L12.6269 15.779C12.4439 15.926 12.2219 16 11.9999 16Z" fill="white"/>
</mask>
<g mask="url(#mask0_52_2512)">
<rect width="24" height="24" fill="#272B31"/>
</g>
</svg>
