<svg width="25" height="23" viewBox="0 0 25 23" fill="none" xmlns="http://www.w3.org/2000/svg">
<path d="M17.474 3.60677L21.3889 7.5217C21.5538 7.68663 21.5538 7.95573 21.3889 8.12066L11.9097 17.5998L7.88194 18.0469C7.34375 18.1076 6.88802 17.6519 6.94878 17.1137L7.39583 13.0859L16.875 3.60677C17.0399 3.44184 17.309 3.44184 17.474 3.60677ZM24.5052 2.61285L22.3872 0.494792C21.7274 -0.164931 20.6554 -0.164931 19.9913 0.494792L18.4549 2.03125C18.2899 2.19618 18.2899 2.46528 18.4549 2.63021L22.3698 6.54514C22.5347 6.71007 22.8038 6.71007 22.9687 6.54514L24.5052 5.00868C25.1649 4.34462 25.1649 3.27257 24.5052 2.61285V2.61285ZM16.6667 15.0217V19.4401H2.77778V5.55122H12.7517C12.8906 5.55122 13.0208 5.49479 13.1207 5.39931L14.8568 3.66319C15.1866 3.33333 14.9523 2.77344 14.4878 2.77344H2.08333C0.93316 2.77344 0 3.7066 0 4.85677V20.1345C0 21.2847 0.93316 22.2179 2.08333 22.2179H17.3611C18.5113 22.2179 19.4444 21.2847 19.4444 20.1345V13.2856C19.4444 12.8212 18.8845 12.5911 18.5547 12.9167L16.8186 14.6528C16.7231 14.7526 16.6667 14.8828 16.6667 15.0217Z" fill="black"/>
</svg>
