<svg width="25" height="25" viewBox="0 0 25 25" fill="none" xmlns="http://www.w3.org/2000/svg">
<path d="M16.4307 7.42188C15.7227 3.06152 14.0527 0 12.1094 0C10.166 0 8.49609 3.06152 7.78809 7.42188H16.4307ZM7.42188 12.1094C7.42188 13.1934 7.48047 14.2334 7.58301 15.2344H16.6309C16.7334 14.2334 16.792 13.1934 16.792 12.1094C16.792 11.0254 16.7334 9.98535 16.6309 8.98438H7.58301C7.48047 9.98535 7.42188 11.0254 7.42188 12.1094ZM23.2764 7.42188C21.8799 4.10645 19.0527 1.54297 15.5615 0.507812C16.7529 2.1582 17.5732 4.64355 18.0029 7.42188H23.2764ZM8.65234 0.507812C5.16602 1.54297 2.33398 4.10645 0.942383 7.42188H6.21582C6.64063 4.64355 7.46094 2.1582 8.65234 0.507812V0.507812ZM23.7988 8.98438H18.1982C18.3008 10.0098 18.3594 11.0596 18.3594 12.1094C18.3594 13.1592 18.3008 14.209 18.1982 15.2344H23.7939C24.0625 14.2334 24.2139 13.1934 24.2139 12.1094C24.2139 11.0254 24.0625 9.98535 23.7988 8.98438ZM5.85938 12.1094C5.85938 11.0596 5.91797 10.0098 6.02051 8.98438H0.419922C0.15625 9.98535 0 11.0254 0 12.1094C0 13.1934 0.15625 14.2334 0.419922 15.2344H6.01562C5.91797 14.209 5.85938 13.1592 5.85938 12.1094V12.1094ZM7.78809 16.7969C8.49609 21.1572 10.166 24.2188 12.1094 24.2188C14.0527 24.2188 15.7227 21.1572 16.4307 16.7969H7.78809ZM15.5664 23.7109C19.0527 22.6758 21.8848 20.1123 23.2812 16.7969H18.0078C17.5781 19.5752 16.7578 22.0605 15.5664 23.7109ZM0.942383 16.7969C2.33887 20.1123 5.16602 22.6758 8.65723 23.7109C7.46582 22.0605 6.64551 19.5752 6.21582 16.7969H0.942383V16.7969Z" fill="#00B2FF"/>
</svg>
