<?xml version="1.0" standalone="no"?>
<!DOCTYPE svg PUBLIC "-//W3C//DTD SVG 20010904//EN"
 "http://www.w3.org/TR/2001/REC-SVG-20010904/DTD/svg10.dtd">
<svg version="1.0" xmlns="http://www.w3.org/2000/svg"
 width="64.000000pt" height="64.000000pt" viewBox="0 0 64.000000 64.000000"
 preserveAspectRatio="xMidYMid meet">

<g transform="translate(0.000000,64.000000) scale(0.100000,-0.100000)"
fill="#000000" stroke="none">
<path d="M247 554 c-72 -71 -26 -187 73 -187 99 0 145 116 73 187 -20 21 -35
26 -73 26 -38 0 -53 -5 -73 -26z m126 -32 c27 -24 22 -76 -9 -101 -15 -12 -34
-21 -44 -21 -33 0 -70 39 -70 74 0 65 71 93 123 48z"/>
<path d="M78 466 c-29 -21 -41 -65 -27 -98 18 -43 65 -60 114 -42 23 9 48 62
41 90 -14 54 -86 83 -128 50z m82 -41 c17 -20 5 -62 -21 -70 -24 -8 -59 19
-59 45 0 37 55 55 80 25z"/>
<path d="M462 460 c-30 -28 -36 -62 -18 -98 17 -32 34 -42 72 -42 36 0 60 15
73 48 14 33 2 77 -27 98 -26 20 -75 17 -100 -6z m86 -32 c29 -29 -7 -86 -47
-73 -26 8 -38 50 -21 70 15 18 51 20 68 3z"/>
<path d="M202 325 c-25 -21 -40 -25 -90 -25 -55 0 -62 -3 -86 -31 -23 -27 -26
-40 -26 -102 0 -82 4 -92 43 -106 38 -15 516 -15 554 0 39 14 43 24 43 106 0
62 -3 75 -26 102 -24 28 -31 31 -86 31 -50 0 -65 4 -90 25 -27 23 -38 25 -118
25 -80 0 -91 -2 -118 -25z m214 -30 c10 -13 14 -48 14 -112 l0 -93 -110 0
-110 0 0 93 c0 128 9 138 124 134 54 -2 71 -7 82 -22z m-246 -115 l0 -91 -62
3 -63 3 -3 70 c-3 62 0 72 19 87 13 11 38 18 65 18 l44 0 0 -90z m409 72 c19
-15 22 -25 19 -87 l-3 -70 -62 -3 -63 -3 0 91 0 90 44 0 c27 0 52 -7 65 -18z"/>
</g>
</svg>
