<?xml version="1.0" standalone="no"?>
<!DOCTYPE svg PUBLIC "-//W3C//DTD SVG 20010904//EN"
 "http://www.w3.org/TR/2001/REC-SVG-20010904/DTD/svg10.dtd">
<svg version="1.0" xmlns="http://www.w3.org/2000/svg"
 width="64.000000pt" height="64.000000pt" viewBox="0 0 64.000000 64.000000"
 preserveAspectRatio="xMidYMid meet">

<g transform="translate(0.000000,64.000000) scale(0.100000,-0.100000)"
fill="#000000" stroke="none">
<path d="M171 508 c-154 -150 -177 -176 -163 -190 8 -8 15 -8 27 2 13 11 15
-2 15 -127 0 -123 2 -142 18 -156 16 -15 49 -17 254 -17 215 0 236 2 251 18
14 15 17 42 17 157 0 123 2 136 15 125 12 -10 19 -10 27 -2 14 14 -9 40 -163
190 -100 96 -121 112 -149 112 -28 0 -49 -16 -149 -112z m276 -30 l103 -102
-2 -156 -3 -155 -62 -3 -63 -3 0 91 c0 115 -11 130 -100 130 -89 0 -100 -15
-100 -130 l0 -91 -62 3 -63 3 -3 155 -2 156 103 102 c71 69 111 102 127 102
16 0 56 -33 127 -102z m-69 -330 l3 -88 -61 0 -60 0 0 83 c0 46 3 87 7 91 4 4
30 6 58 4 l50 -3 3 -87z"/>
</g>
</svg>
