<svg width="18" height="18" viewBox="0 0 18 18" fill="none" xmlns="http://www.w3.org/2000/svg">
<path fill-rule="evenodd" clip-rule="evenodd" d="M9 5.25C9.828 5.25 10.5 4.578 10.5 3.75C10.5 2.922 9.828 2.25 9 2.25C8.172 2.25 7.5 2.922 7.5 3.75C7.5 4.578 8.172 5.25 9 5.25ZM9 7.5C8.172 7.5 7.5 8.172 7.5 9C7.5 9.828 8.172 10.5 9 10.5C9.828 10.5 10.5 9.828 10.5 9C10.5 8.172 9.828 7.5 9 7.5ZM7.5 14.25C7.5 13.422 8.172 12.75 9 12.75C9.828 12.75 10.5 13.422 10.5 14.25C10.5 15.078 9.828 15.75 9 15.75C8.172 15.75 7.5 15.078 7.5 14.25Z" fill="#A6ADB1"/>
<mask id="mask0_30_763" style="mask-type:alpha" maskUnits="userSpaceOnUse" x="7" y="2" width="4" height="14">
<path fill-rule="evenodd" clip-rule="evenodd" d="M9 5.25C9.828 5.25 10.5 4.578 10.5 3.75C10.5 2.922 9.828 2.25 9 2.25C8.172 2.25 7.5 2.922 7.5 3.75C7.5 4.578 8.172 5.25 9 5.25ZM9 7.5C8.172 7.5 7.5 8.172 7.5 9C7.5 9.828 8.172 10.5 9 10.5C9.828 10.5 10.5 9.828 10.5 9C10.5 8.172 9.828 7.5 9 7.5ZM7.5 14.25C7.5 13.422 8.172 12.75 9 12.75C9.828 12.75 10.5 13.422 10.5 14.25C10.5 15.078 9.828 15.75 9 15.75C8.172 15.75 7.5 15.078 7.5 14.25Z" fill="white"/>
</mask>
<g mask="url(#mask0_30_763)">
<rect width="18" height="18" fill="#A6ADB1"/>
</g>
</svg>
