<svg width="25" height="25" viewBox="0 0 25 25" fill="none" xmlns="http://www.w3.org/2000/svg">
<path d="M12.1094 0C5.41992 0 0 5.41992 0 12.1094C0 18.7988 5.41992 24.2188 12.1094 24.2188C18.7988 24.2188 24.2188 18.7988 24.2188 12.1094C24.2188 5.41992 18.7988 0 12.1094 0ZM18.0566 8.2959L16.0693 17.6611C15.9229 18.3252 15.5273 18.4863 14.9756 18.1738L11.9482 15.9424L10.4883 17.3486C10.3271 17.5098 10.1904 17.6465 9.87793 17.6465L10.0928 14.5654L15.7031 9.49707C15.9473 9.28223 15.6494 9.16016 15.3271 9.375L8.39355 13.7402L5.40527 12.8076C4.75586 12.6025 4.74121 12.1582 5.54199 11.8457L17.2168 7.34375C17.7588 7.14844 18.2324 7.47559 18.0566 8.2959V8.2959Z" fill="#1B92CE"/>
</svg>
