<svg width="40" height="40" viewBox="0 0 40 40" fill="none" xmlns="http://www.w3.org/2000/svg">
<rect width="40" height="40" rx="12" fill="#1DA1F2"/>
<rect x="5" y="5" width="30" height="30" rx="15" fill="#1DA1F2"/>
<path d="M27.3516 16.7578C27.3516 16.9219 27.3516 17.0859 27.3516 17.2266C27.3516 22.0781 23.6484 27.6797 16.8984 27.6797C14.8125 27.6797 12.8906 27.0703 11.25 26.0391C11.5312 26.0625 11.8359 26.0859 12.1172 26.0859C13.8281 26.0859 15.4219 25.5 16.6875 24.5156C15.0703 24.4922 13.7109 23.4141 13.2656 21.9609C13.5 22.0078 13.7109 22.0312 13.9687 22.0312C14.2969 22.0312 14.625 21.9844 14.9297 21.8906C13.2422 21.5625 11.9766 20.0859 11.9766 18.3047C11.9766 18.2812 11.9766 18.2812 11.9766 18.2578C12.4687 18.5391 13.0312 18.7031 13.6406 18.7266C12.6562 18.0703 12 16.9453 12 15.6562C12 14.9766 12.1875 14.3438 12.4922 13.8047C14.2969 16.0312 17.0156 17.4844 20.0625 17.6484C19.9922 17.3906 19.9687 17.0859 19.9687 16.8047C19.9687 14.7656 21.6094 13.125 23.6484 13.125C24.7031 13.125 25.6641 13.5703 26.3203 14.2734C27.1641 14.1094 27.9375 13.8047 28.6641 13.3828C28.3828 14.25 27.7969 14.9531 27.0469 15.4219C27.7969 15.3281 28.5 15.1406 29.1562 14.8359C28.6875 15.5859 28.0781 16.2422 27.3516 16.7578Z" fill="white"/>
</svg>
