<svg width="60" height="60" viewBox="0 0 60 60" fill="none" xmlns="http://www.w3.org/2000/svg">
<path d="M22.9082 28.9781H34.8988L49.8895 0H37.8988L22.9082 28.9781Z" fill="#006CA2"/>
<path d="M30.4035 14.489L24.4082 26.0812L25.9082 28.9781H34.8988L36.3988 26.0812L30.4035 14.489Z" fill="#2F2F2F"/>
<path d="M35.8598 35.9765H23.8691V28.9781H35.8598V35.9765ZM35.8598 25.9828H23.8691C23.0735 25.9828 22.3104 26.2989 21.7478 26.8615C21.1852 27.4241 20.8691 28.1871 20.8691 28.9828V35.9765C20.8691 36.7722 21.1852 37.5352 21.7478 38.0979C22.3104 38.6605 23.0735 38.9765 23.8691 38.9765H35.8598C37.5145 38.9765 38.8551 37.6359 38.8551 35.9765V28.9781C38.8551 27.3234 37.5145 25.9828 35.8598 25.9828Z" fill="#FCC21B"/>
<path d="M44.8504 44.9672C44.8504 53.2453 38.1379 59.9578 29.8598 59.9578C21.5816 59.9578 14.8691 53.25 14.8691 44.9672C14.8691 36.6844 21.5816 29.9766 29.8598 29.9766C38.1426 29.9766 44.8504 36.6891 44.8504 44.9672Z" fill="#FCC21B"/>
<path d="M19.8139 41.3204C19.617 41.3204 19.4202 41.2829 19.2327 41.1985C18.5108 40.8891 18.1639 40.05 18.4452 39.3235C18.4498 39.3141 18.4545 39.3 18.4545 39.2907C18.4592 39.2672 18.4639 39.2719 18.4733 39.2532C19.7998 36.0938 22.5795 33.7594 25.917 32.986C26.0811 32.9485 26.2545 33.0282 26.3295 33.1829C26.4045 33.3375 26.3623 33.525 26.2264 33.6329C24.0373 35.3719 22.2889 37.7157 21.1733 40.4157C21.1733 40.4204 21.1686 40.425 21.1686 40.425C21.1686 40.425 21.1686 40.4297 21.1639 40.4297C21.0092 40.7907 20.7233 41.0719 20.3577 41.2125C20.1842 41.2875 19.9967 41.3204 19.8139 41.3204Z" fill="white"/>
<path d="M35.9012 28.9781H23.9059L8.91992 0H20.9105L35.9012 28.9781Z" fill="#006CA2"/>
<path d="M26.9527 41.911L28.3449 41.5125V49.1578H27.2715C27.1543 49.1578 27.0652 49.2516 27.0652 49.3641V51.9797C27.0652 52.0922 27.1543 52.186 27.2715 52.186H32.8262C32.9387 52.186 33.0324 52.0922 33.0324 51.9797V49.3641C33.0324 49.2516 32.9387 49.1578 32.8262 49.1578H31.7527V37.9594C31.7527 37.8985 31.7246 37.8375 31.673 37.8C31.6491 37.7806 31.6211 37.7667 31.5911 37.7595C31.5611 37.7522 31.5298 37.7516 31.4996 37.7578L26.8496 38.7563C26.7559 38.7797 26.6855 38.8594 26.6855 38.9578V41.7141C26.6855 41.775 26.7137 41.8407 26.7652 41.8782C26.8262 41.9157 26.8918 41.925 26.9527 41.911Z" fill="#F79329"/>
</svg>
