<svg width="60" height="68" viewBox="0 0 60 68" fill="none" xmlns="http://www.w3.org/2000/svg">
<g filter="url(#filter0_d_161_744)">
<path d="M23.1328 28.9688H35.1187L50.1047 0H38.1187L23.1328 28.9688Z" fill="#006CA2"/>
<path d="M30.6234 14.4844L24.6328 26.0719L26.1328 28.9688H35.1187L36.6188 26.0719L30.6234 14.4844Z" fill="white"/>
<path d="M36.0797 35.9625H24.0891V28.9687H36.075V35.9625H36.0797ZM36.0797 25.9734H24.0891C22.4344 25.9734 21.0938 27.314 21.0938 28.9687V35.9625C21.0938 37.6171 22.4344 38.9578 24.0891 38.9578H36.075C37.7297 38.9578 39.0703 37.6171 39.0703 35.9625V28.9687C39.0713 28.5755 38.9947 28.1859 38.8448 27.8224C38.6949 27.4588 38.4747 27.1284 38.1969 26.8502C37.919 26.5719 37.589 26.3512 37.2257 26.2007C36.8624 26.0503 36.4729 25.973 36.0797 25.9734Z" fill="#999999"/>
<path d="M45.0715 44.9531C45.0715 53.2312 38.3637 59.939 30.0855 59.939C21.8121 59.939 15.0996 53.2312 15.0996 44.9531C15.0996 36.675 21.8074 29.9672 30.0855 29.9672C38.3637 29.9672 45.0715 36.6797 45.0715 44.9531Z" fill="#999999"/>
<path d="M20.0385 41.3062C19.8416 41.3062 19.6448 41.2687 19.4573 41.1843C18.7354 40.875 18.3885 40.0359 18.6698 39.3046C18.6745 39.2953 18.6791 39.2812 18.6791 39.2718C18.6838 39.2484 18.6838 39.2531 18.6979 39.2343C19.3534 37.676 20.3696 36.2956 21.663 35.2069C22.9563 34.1181 24.4897 33.3521 26.137 32.9718C26.301 32.9343 26.4745 33.014 26.5495 33.1687C26.6245 33.3234 26.5823 33.5062 26.4463 33.614C24.2573 35.3531 22.5088 37.6968 21.3932 40.3921C21.3932 40.3968 21.3885 40.4015 21.3885 40.4015C21.3885 40.4062 21.3885 40.4062 21.3838 40.4109C21.2291 40.7718 20.9432 41.0484 20.5776 41.1937C20.4088 41.2734 20.2213 41.3062 20.0385 41.3062Z" fill="white"/>
<path d="M36.1223 28.9688H24.1316L9.15039 0H21.1363L36.1223 28.9688Z" fill="#006CA2"/>
<path d="M34.5285 48.6938H29.4988C30.291 48.211 31.6738 47.25 33.2488 45.675C34.7254 44.2032 35.2176 41.5172 33.4551 39.75C32.4332 38.7328 31.2707 38.2125 30.0004 38.2125C27.1926 38.2125 24.8488 40.6969 24.7504 40.8C24.6894 40.8657 24.6754 40.9688 24.7269 41.0485L25.9926 43.1157C26.0254 43.1672 26.0816 43.2047 26.1426 43.2094C26.2035 43.2188 26.2644 43.2 26.3113 43.1531C26.3254 43.1391 27.8535 41.7235 29.1941 41.7235C29.7332 41.7235 30.1551 41.9485 30.4832 42.4172C30.7504 42.7969 30.8301 43.2188 30.7269 43.6969C30.216 45.9844 25.7019 48.5719 25.6551 48.6C25.6241 48.6184 25.5984 48.6445 25.5803 48.6757C25.5623 48.7068 25.5525 48.7421 25.5519 48.7781V51.4828C25.5519 51.6 25.6457 51.6891 25.7582 51.6891H34.5332C34.6457 51.6891 34.7394 51.5953 34.7394 51.4828V48.8953C34.7369 48.8411 34.7136 48.7899 34.6743 48.7523C34.635 48.7148 34.5828 48.6938 34.5285 48.6938Z" fill="#DEEEF5"/>
</g>
<defs>
<filter id="filter0_d_161_744" x="-4" y="0" width="68" height="68" filterUnits="userSpaceOnUse" color-interpolation-filters="sRGB">
<feFlood flood-opacity="0" result="BackgroundImageFix"/>
<feColorMatrix in="SourceAlpha" type="matrix" values="0 0 0 0 0 0 0 0 0 0 0 0 0 0 0 0 0 0 127 0" result="hardAlpha"/>
<feOffset dy="4"/>
<feGaussianBlur stdDeviation="2"/>
<feComposite in2="hardAlpha" operator="out"/>
<feColorMatrix type="matrix" values="0 0 0 0 0 0 0 0 0 0 0 0 0 0 0 0 0 0 0.25 0"/>
<feBlend mode="normal" in2="BackgroundImageFix" result="effect1_dropShadow_161_744"/>
<feBlend mode="normal" in="SourceGraphic" in2="effect1_dropShadow_161_744" result="shape"/>
</filter>
</defs>
</svg>
