<svg width="60" height="60" viewBox="0 0 60 60" fill="none" xmlns="http://www.w3.org/2000/svg">
<g clip-path="url(#clip0_161_717)">
<path d="M23.502 28.9922H35.4973L50.4926 0H38.4973L23.502 28.9922Z" fill="#006CA2"/>
<path d="M30.9973 14.4938L25.002 26.0953L26.502 28.9922H35.4973L36.9973 26.0953L30.9973 14.4938Z" fill="#2F2F2F"/>
<path d="M36.4543 35.9906H24.459V28.9922H36.4543V35.9906ZM36.4543 25.9922H24.459C23.6633 25.9922 22.9003 26.3083 22.3377 26.8709C21.7751 27.4335 21.459 28.1965 21.459 28.9922V35.9906C21.459 37.65 22.7996 38.9906 24.459 38.9906H36.4543C38.1137 38.9906 39.4543 37.65 39.4543 35.9906V28.9922C39.4543 27.3328 38.1137 25.9922 36.4543 25.9922Z" fill="#F79329"/>
<path d="M45.4535 44.9859C45.4535 53.2687 38.741 59.9812 30.4582 59.9812C22.1754 59.9812 15.4629 53.2687 15.4629 44.9859C15.4629 36.7031 22.1754 29.9906 30.4582 29.9906C38.741 29.9906 45.4535 36.7078 45.4535 44.9859Z" fill="#F79329"/>
<path d="M20.4038 41.3391C20.2069 41.3391 20.01 41.3016 19.8225 41.2172C19.1006 40.9078 18.7538 40.0688 19.035 39.3375C19.0397 39.3235 19.0444 39.3141 19.0491 39.3047C19.0538 39.2813 19.0538 39.286 19.0678 39.2672C19.7241 37.7081 20.7411 36.327 22.0352 35.2374C23.3292 34.1479 24.8634 33.3811 26.5116 33C26.6756 32.9625 26.8491 33.0422 26.9241 33.1969C26.9991 33.3516 26.9569 33.5391 26.8209 33.6469C24.6319 35.386 22.8834 37.7344 21.7631 40.4297C21.7631 40.4344 21.7584 40.4391 21.7584 40.4391C21.7584 40.4438 21.7584 40.4438 21.7538 40.4485C21.5991 40.8094 21.3131 41.0906 20.9475 41.2313C20.7741 41.3063 20.5866 41.3391 20.4038 41.3391Z" fill="white"/>
<path d="M36.4965 28.9922H24.5012L9.50586 0H21.5012L36.4965 28.9922Z" fill="#006CA2"/>
<path d="M30.3276 52.4297H30.4026C31.2511 52.4156 32.8589 52.2281 34.087 51.1266C35.1089 50.2078 35.5823 48.9516 35.3901 47.6766C35.2073 46.4906 34.462 45.4828 33.3229 44.8594C34.4151 44.0391 35.0714 43.0125 35.1839 41.9438C35.2964 40.9078 34.8886 39.8766 34.012 38.9578C33.1308 38.0344 31.9401 37.5469 30.5761 37.5469C28.4714 37.5469 26.5354 38.6578 25.9495 39.4641C25.8979 39.5297 25.8979 39.6234 25.9448 39.6984L27.2526 41.5875C27.2854 41.6344 27.3323 41.6672 27.3886 41.6719C27.4401 41.6813 27.5011 41.6672 27.5433 41.6297C27.5573 41.6203 28.9776 40.4531 30.1917 40.4531C30.7448 40.4531 31.1526 40.6969 31.4433 41.1937C31.6823 41.6109 31.7292 41.9906 31.5839 42.3563C31.1854 43.3406 29.4979 43.8422 29.4839 43.8469C29.3995 43.8703 29.3386 43.95 29.3386 44.0391V45.7031C29.3386 45.7969 29.3995 45.8766 29.4933 45.8953C29.512 45.9 31.1151 46.2984 31.4808 47.2172C31.6261 47.5781 31.5511 47.9859 31.2651 48.4313C30.9604 48.9 30.5011 49.1391 29.8964 49.1391C28.7245 49.1391 27.2901 48.2484 26.662 47.6906C26.641 47.672 26.6165 47.6579 26.5899 47.649C26.5634 47.6402 26.5353 47.6368 26.5073 47.6391C26.4464 47.6437 26.3995 47.6766 26.3667 47.7234L25.0589 49.6125C25.0073 49.6875 25.012 49.7859 25.0729 49.8563C25.1526 49.9641 27.2901 52.4297 30.3276 52.4297Z" fill="#AE3D09"/>
<path d="M18.502 27.9922H30.4973L45.4926 -1H33.4973L18.502 27.9922Z" fill="#006CA2"/>
<path d="M25.9973 13.4938L20.002 25.0953L21.502 27.9922H30.4973L31.9973 25.0953L25.9973 13.4938Z" fill="#2F2F2F"/>
<path d="M31.4543 34.9906H19.459V27.9922H31.4543V34.9906ZM31.4543 24.9922H19.459C18.6633 24.9922 17.9003 25.3083 17.3377 25.8709C16.7751 26.4335 16.459 27.1965 16.459 27.9922V34.9906C16.459 36.65 17.7996 37.9906 19.459 37.9906H31.4543C33.1137 37.9906 34.4543 36.65 34.4543 34.9906V27.9922C34.4543 26.3328 33.1137 24.9922 31.4543 24.9922Z" fill="#F79329"/>
<path d="M40.4535 43.9859C40.4535 52.2687 33.741 58.9812 25.4582 58.9812C17.1754 58.9812 10.4629 52.2687 10.4629 43.9859C10.4629 35.7031 17.1754 28.9906 25.4582 28.9906C33.741 28.9906 40.4535 35.7078 40.4535 43.9859Z" fill="#F79329"/>
<path d="M15.4038 40.3391C15.2069 40.3391 15.01 40.3016 14.8225 40.2172C14.1006 39.9078 13.7538 39.0688 14.035 38.3375C14.0397 38.3235 14.0444 38.3141 14.0491 38.3047C14.0538 38.2813 14.0538 38.286 14.0678 38.2672C14.7241 36.7081 15.7411 35.327 17.0352 34.2374C18.3292 33.1479 19.8634 32.3811 21.5116 32C21.6756 31.9625 21.8491 32.0422 21.9241 32.1969C21.9991 32.3516 21.9569 32.5391 21.8209 32.6469C19.6319 34.386 17.8834 36.7344 16.7631 39.4297C16.7631 39.4344 16.7584 39.4391 16.7584 39.4391C16.7584 39.4438 16.7584 39.4438 16.7538 39.4485C16.5991 39.8094 16.3131 40.0906 15.9475 40.2313C15.7741 40.3063 15.5866 40.3391 15.4038 40.3391Z" fill="white"/>
<path d="M31.4965 27.9922H19.5012L4.50586 -1H16.5012L31.4965 27.9922Z" fill="#006CA2"/>
<path d="M25.3276 51.4297H25.4026C26.2511 51.4156 27.8589 51.2281 29.087 50.1266C30.1089 49.2078 30.5823 47.9516 30.3901 46.6766C30.2073 45.4906 29.462 44.4828 28.3229 43.8594C29.4151 43.0391 30.0714 42.0125 30.1839 40.9438C30.2964 39.9078 29.8886 38.8766 29.012 37.9578C28.1308 37.0344 26.9401 36.5469 25.5761 36.5469C23.4714 36.5469 21.5354 37.6578 20.9495 38.4641C20.8979 38.5297 20.8979 38.6234 20.9448 38.6984L22.2526 40.5875C22.2854 40.6344 22.3323 40.6672 22.3886 40.6719C22.4401 40.6813 22.5011 40.6672 22.5433 40.6297C22.5573 40.6203 23.9776 39.4531 25.1917 39.4531C25.7448 39.4531 26.1526 39.6969 26.4433 40.1937C26.6823 40.6109 26.7292 40.9906 26.5839 41.3563C26.1854 42.3406 24.4979 42.8422 24.4839 42.8469C24.3995 42.8703 24.3386 42.95 24.3386 43.0391V44.7031C24.3386 44.7969 24.3995 44.8766 24.4933 44.8953C24.512 44.9 26.1151 45.2984 26.4808 46.2172C26.6261 46.5781 26.5511 46.9859 26.2651 47.4313C25.9604 47.9 25.5011 48.1391 24.8964 48.1391C23.7245 48.1391 22.2901 47.2484 21.662 46.6906C21.641 46.672 21.6165 46.6579 21.5899 46.649C21.5634 46.6402 21.5353 46.6368 21.5073 46.6391C21.4464 46.6437 21.3995 46.6766 21.3667 46.7234L20.0589 48.6125C20.0073 48.6875 20.012 48.7859 20.0729 48.8563C20.1526 48.9641 22.2901 51.4297 25.3276 51.4297Z" fill="#AE3D09"/>
</g>
<defs>
<clipPath id="clip0_161_717">
<rect width="60" height="60" fill="white"/>
</clipPath>
</defs>
</svg>
